<!--?xml version="1.0" encoding="UTF-8" standalone="no"?-->
<svg xmlns:dc="http://purl.org/dc/elements/1.1/" xmlns:cc="http://creativecommons.org/ns#" xmlns:rdf="http://www.w3.org/1999/02/22-rdf-syntax-ns#" xmlns:svg="http://www.w3.org/2000/svg" xmlns="http://www.w3.org/2000/svg" xmlns:xlink="http://www.w3.org/1999/xlink" xmlns:sodipodi="http://sodipodi.sourceforge.net/DTD/sodipodi-0.dtd" xmlns:inkscape="http://www.inkscape.org/namespaces/inkscape" sodipodi:docname="new imsgineee logo.svg" inkscape:version="1.0 (4035a4fb49, 2020-05-01)" id="svg8" version="1.1" viewBox="0 0 135.46666 135.46667" height="512" width="512" style="">
  <defs id="defs2">
    <marker inkscape:isstock="true" id="ExperimentalArrow" refX="5.0" refY="3.0" orient="auto-start-reverse" inkscape:stockid="ExperimentalArrow">
      <path style="fill:context-stroke;stroke:#0d0023;stroke-opacity:1" d="m 10,3 -10,3 0,-6 z" id="path1202" class="furEiENd_0"></path>
    </marker>
    <marker inkscape:isstock="true" style="overflow:visible;" id="Arrow1Lend" refX="0.0" refY="0.0" orient="auto" inkscape:stockid="Arrow1Lend">
      <path transform="scale(0.8) rotate(180) translate(12.5,0)" style="fill-rule:evenodd;stroke:#0d0023;stroke-width:1pt;stroke-opacity:1;fill:#0d0023;fill-opacity:1" d="M 0.0,0.0 L 5.0,-5.0 L -12.5,0.0 L 5.0,5.0 L 0.0,0.0 z " id="path952" class="furEiENd_1"></path>
    </marker>
    <inkscape:path-effect end_linecap_type="zerowidth" scale_width="1" miter_limit="4" linejoin_type="extrp_arc" start_linecap_type="zerowidth" interpolator_beta="0.2" interpolator_type="CubicBezierJohan" sort_points="true" offset_points="4,0.1322915" lpeversion="1" is_visible="true" id="path-effect943" effect="powerstroke"></inkscape:path-effect>
    <inkscape:path-effect only_selected="false" apply_with_weight="true" apply_no_weight="true" helper_size="0" steps="2" weight="33.333333" lpeversion="1" is_visible="true" id="path-effect941" effect="bspline"></inkscape:path-effect>
    <inkscape:path-effect end_linecap_type="zerowidth" scale_width="1" miter_limit="4" linejoin_type="extrp_arc" start_linecap_type="zerowidth" interpolator_beta="0.2" interpolator_type="CubicBezierJohan" sort_points="true" offset_points="2,0.1322915" lpeversion="1" is_visible="true" id="path-effect937" effect="powerstroke"></inkscape:path-effect>
    <inkscape:path-effect only_selected="false" apply_with_weight="true" apply_no_weight="true" helper_size="0" steps="2" weight="33.333333" lpeversion="1" is_visible="true" id="path-effect935" effect="bspline"></inkscape:path-effect>
    <inkscape:path-effect end_linecap_type="zerowidth" scale_width="1" miter_limit="4" linejoin_type="extrp_arc" start_linecap_type="zerowidth" interpolator_beta="0.2" interpolator_type="CubicBezierJohan" sort_points="true" offset_points="3,0.1322915" lpeversion="1" is_visible="true" id="path-effect931" effect="powerstroke"></inkscape:path-effect>
    <inkscape:path-effect only_selected="false" apply_with_weight="true" apply_no_weight="true" helper_size="0" steps="2" weight="33.333333" lpeversion="1" is_visible="true" id="path-effect929" effect="bspline"></inkscape:path-effect>
    <inkscape:path-effect fuse_tolerance="0" hide_knot="false" vertical_pattern="false" prop_units="false" tang_offset="0" normal_offset="0" spacing="0" scale_y_rel="false" prop_scale="1" copytype="single_stretched" pattern="M 0,5 C 0,2.24 2.24,0 5,0 7.76,0 10,2.24 10,5 10,7.76 7.76,10 5,10 2.24,10 0,7.76 0,5 Z" lpeversion="1" is_visible="true" id="path-effect925" effect="skeletal"></inkscape:path-effect>
    <inkscape:path-effect only_selected="false" apply_with_weight="true" apply_no_weight="true" helper_size="0" steps="2" weight="33.333333" lpeversion="1" is_visible="true" id="path-effect923" effect="bspline"></inkscape:path-effect>
    <inkscape:path-effect fuse_tolerance="0" hide_knot="false" vertical_pattern="false" prop_units="false" tang_offset="0" normal_offset="0" spacing="0" scale_y_rel="false" prop_scale="1" copytype="single_stretched" pattern="M 0,5 C 0,2.24 2.24,0 5,0 7.76,0 10,2.24 10,5 10,7.76 7.76,10 5,10 2.24,10 0,7.76 0,5 Z" lpeversion="1" is_visible="true" id="path-effect919" effect="skeletal"></inkscape:path-effect>
    <inkscape:path-effect only_selected="false" apply_with_weight="true" apply_no_weight="true" helper_size="0" steps="2" weight="33.333333" lpeversion="1" is_visible="true" id="path-effect917" effect="bspline"></inkscape:path-effect>
    <inkscape:path-effect lpeversion="1" is_visible="true" id="path-effect911" effect="spiro"></inkscape:path-effect>
    <linearGradient id="linearGradient841" inkscape:collect="always">
      <stop id="stop837" offset="0" style="stop-color:#6d5fba;stop-opacity:1"></stop>
      <stop id="stop839" offset="1" style="stop-color:#00afff;stop-opacity:0"></stop>
    </linearGradient>
    <linearGradient gradientUnits="userSpaceOnUse" y2="0.27948886" x2="135.77225" y1="113.7522" x1="20.182863" id="linearGradient851" xlink:href="#linearGradient841" inkscape:collect="always"></linearGradient>
  </defs>
  <sodipodi:namedview inkscape:window-maximized="1" inkscape:window-y="-9" inkscape:window-x="-9" inkscape:window-height="1001" inkscape:window-width="1920" units="px" showgrid="false" inkscape:document-rotation="0" inkscape:current-layer="layer2" inkscape:document-units="px" inkscape:cy="252.20697" inkscape:cx="227.65598" inkscape:zoom="1.42" inkscape:pageshadow="2" inkscape:pageopacity="0.0" borderopacity="1.0" bordercolor="#666666" pagecolor="#ffffff" id="base"></sodipodi:namedview>
  <metadata id="metadata5">
    <rdf:rdf>
      <cc:work rdf:about="">
        <dc:format>image/svg+xml</dc:format>
        <dc:type rdf:resource="http://purl.org/dc/dcmitype/StillImage"></dc:type>
        <dc:title></dc:title>
      </cc:work>
    </rdf:rdf>
  </metadata>
  <g sodipodi:insensitive="true" style="display:inline" id="layer1" inkscape:groupmode="layer" inkscape:label="back">
    <path id="path833" style="fill: url(&quot;#linearGradient851&quot;); fill-opacity: 1; stroke: rgb(13, 0, 35); stroke-width: 2.08513; stroke-miterlimit: 4; stroke-opacity: 1;" d="M1.1021879999999982,67.915932A66.813744,66.627419 0,1,1 134.72967599999998,67.915932A66.813744,66.627419 0,1,1 1.1021879999999982,67.915932" class="furEiENd_2"></path>
  </g>
  <g style="display:inline" sodipodi:insensitive="true" inkscape:label="spiral" id="layer3" inkscape:groupmode="layer">
    <path sodipodi:type="spiral" style="fill: none; fill-rule: evenodd; stroke: rgb(13, 0, 35); stroke-width: 0.529167; stroke-linecap: round; stroke-linejoin: round; stroke-miterlimit: 4; stroke-opacity: 1; paint-order: normal;" id="path947" sodipodi:cx="67.79866" sodipodi:cy="67.477356" sodipodi:expansion="0.55500001" sodipodi:revolution="60" sodipodi:radius="67.142464" sodipodi:argument="-33.756496" sodipodi:t0="0" d="m 67.79866,67.477356 c -1.672548,-1.725648 0.774546,-2.990901 2.302215,-2.231373 2.093051,1.040625 2.229082,3.881228 0.976049,5.613714 -1.751064,2.42108 -5.289038,2.536615 -7.514187,0.723239 -2.761334,-2.250339 -2.849904,-6.449949 -0.580399,-9.07481 2.665191,-3.0825 7.464502,-3.148072 10.440695,-0.482076 3.383295,3.030666 3.429529,8.379436 0.407416,11.674591 -3.362363,3.666148 -9.220794,3.695792 -12.810938,0.347263 -3.933645,-3.668912 -3.948749,-10.004855 -0.29684,-13.871184 3.955721,-4.187979 10.74261,-4.190107 14.869809,-0.253361 4.430928,4.226459 4.421304,11.441895 0.215068,15.817149 -4.483762,4.663932 -12.108542,4.643537 -16.720905,0.180788 -4.88816,-4.729599 -4.857796,-12.747025 -0.149698,-17.586996 4.965496,-5.104578 13.360873,-5.064914 18.420096,-0.121205 5.313989,5.192658 5.26559,13.952925 0.09486,19.223974 -5.412062,5.517067 -14.525507,5.460416 -20.00172,0.07033 -5.714387,-5.624512 -5.649905,-15.080555 -0.04734,-20.75591 5.830682,-5.90644 15.619701,-5.834494 21.488717,-0.02569 6.093655,6.031137 6.014568,16.144332 0.0052,22.201993 -6.226365,6.276401 -16.655647,6.190462 -22.897335,-0.01427 -6.455005,-6.416785 -6.362474,-17.154681 0.03283,-23.576131 6.602764,-6.629755 17.642344,-6.530864 24.239595,0.05059 6.800907,6.784622 6.695868,18.119438 -0.06762,24.888799 -6.962641,6.96869 -18.58667,6.857696 -25.524692,-0.08399 -7.133309,-7.137075 -7.016537,-19.044673 0.09977,-26.148124 7.308147,-7.294948 19.494013,-7.172561 26.759852,0.115001 7.453777,7.47606 7.325924,19.935201 -0.129736,27.360563 -7.640998,7.609946 -20.3687,7.476767 -27.950878,-0.144016 -7.763594,-7.803122 -7.625217,-20.794925 0.157874,-28.531355 7.962585,-7.914849 21.21426,-7.771397 29.102511,0.171339 8.063828,8.119525 7.915412,21.627055 -0.184442,29.664816 -8.274065,8.210637 -22.033628,8.057362 -30.218698,-0.197208 -8.355376,-8.426321 -8.197342,-22.434274 0.209657,-30.764555 8.5764,-8.498135 22.829266,-8.335437 31.302752,0.221811 8.639002,8.7244 8.471727,23.218854 -0.233687,31.833629 -8.870411,8.778054 -23.60327,8.606285 -32.357498,-0.245304 -8.915365,-9.014517 -8.739182,-23.982731 0.256674,-32.874651 9.156799,-9.051004 24.35744,-8.870481 33.385361,0.267812 9.185035,9.297328 9.000244,24.727584 -0.278731,33.889882 -9.436172,9.317518 -25.093338,9.128526 -34.388449,-0.289443 -9.448509,-9.573395 -9.255383,-25.454867 0.299957,-34.881285 9.709058,-9.578064 25.812326,-9.380863 35.3686,0.310283 9.706229,9.843217 9.505014,26.16586 -0.320431,35.850589 -9.975925,9.833053 -26.515606,9.62788 -36.327437,-0.33041 -9.958581,-10.10723 -9.749504,-26.861691 0.340226,-36.799316 10.237181,-10.082854 27.204238,-9.869926 37.266393,0.349887 10.205913,10.365822 9.989182,27.543362 -0.3594,37.728822 C 75.986581,97.079349 58.600605,96.858865 48.293026,86.382784 37.844493,75.763446 38.068685,58.171017 48.671033,47.742468 59.415325,37.174303 77.212283,37.402159 87.760685,48.129581 98.447408,58.99767 98.215931,76.997292 87.364593,87.664465 76.373827,98.4687 58.173355,98.233645 47.388462,87.259514 36.467729,76.147159 36.706324,57.747597 47.802157,46.846007 59.035042,35.809764 77.631982,36.051859 88.649276,47.268333 99.800069,58.620719 99.55451,77.413373 88.218426,88.545404 76.747538,99.809812 57.760791,99.560826 46.514963,88.106134 35.137852,76.51772 35.39023,57.338456 46.962554,45.979749 58.667547,34.490821 78.03779,34.746557 89.508485,46.435562 101.10836,58.25621 100.8493,77.815935 89.044541,89.397748 77.10914,101.10773 57.361392,100.84538 45.669311,88.925765 33.850042,76.876488 34.11566,56.942141 46.149246,45.14062 58.311542,33.21287 78.431097,33.481721 90.341251,45.628421 102.3767,57.9029 102.10464,78.206308 89.845665,90.224305 77.45982,102.36668 56.973884,102.09145 44.848814,89.721014 32.600262,77.2246 32.87864,56.557431 45.359733,44.326041 57.965937,31.972043 78.813074,32.253542 91.150047,44.844512 103.60878,57.559744 103.32418,78.585613 90.624097,91.027451 77.800581,103.59021 56.597191,103.30255 44.051194,90.494091 31.385093,77.563021 31.675799,56.183292 44.591892,43.533824 57.629805,30.765051 79.184715,31.058778 91.936979,44.081795 104.80777,57.225853 104.51104,78.954809 91.3818,91.809209 78.132281,104.78137 56.230389,104.48167 43.274499,91.246886 30.201602,77.892574 30.504249,55.818834 43.843905,42.762089 57.302353,29.58907 79.546877,29.894646 92.703856,43.338516 105.97639,56.90046 105.66791,79.314721 92.120466,92.571326 78.455657,105.94278 55.872682,105.63141 42.517048,91.98103 29.047255,78.213973 29.361492,55.463289 43.114193,42.009211 56.982893,28.441653 79.900302,28.758736 93.452249,42.613152 107.11701,56.5829 106.7971,79.666067 92.841566,93.315319 78.771351,107.07673 55.523376,106.75402 41.777371,92.697946 27.919845,78.527838 28.245349,55.115985 42.401383,41.273771 56.670824,27.320664 80.24564,27.648938 94.18353,41.904373 108.2317,56.272594 107.90067,80.009475 93.546387,94.042517 79.079927,108.18523 55.181863,107.85147 41.054183,93.398881 26.81743,78.834714 27.153908,54.776334 41.704266,40.554522 56.365618,26.224222 80.583462,26.5634 94.898909,41.211007 109.32227,55.969029 108.98041,80.345499 94.236067,94.754093 79.38188,109.27003 54.847606,108.9255 40.346346,94.084937 25.738296,79.135081 26.085477,54.443813 41.021773,39.850361 56.066808,25.150664 80.914274,25.50048 95.599456,40.532016 110.39034,55.671751 110.03791,80.674632 94.911612,95.451085 79.67765,110.33272 54.520125,109.97767 39.652851,94.757093 24.68092,79.429369 25.038551,54.117959 40.352951,39.160305 55.773979,24.098508 81.238529,24.458715 96.286126,39.866476 111.43736,55.380358 111.07459,80.997312 95.573923,96.134422 79.967631,111.37468 54.198996,111.00936 38.972794,95.416224 23.643937,79.717959 24.011786,53.798355 39.69695,38.483478 55.486758,23.066427 81.55663,23.436796 96.959773,39.213558 112.46461,55.094485 112.09174,81.313932 96.223805,96.804937 80.252175,112.39717 53.883833,112.02181 38.305364,96.063116 22.626124,80.001195 23.003973,53.484629 39.053005,37.819089 55.204812,22.053229 81.86894,22.433547 97.621166,38.572516 113.47326,54.813809 113.09049,81.624848 96.861986,97.463379 80.5316,113.40134 53.574293,113.01613 37.649832,96.698477 21.626375,80.279386 22.014021,53.176444 38.420424,37.166425 54.927837,21.057836 82.175789,21.447902 98.271002,37.942676 114.46436,54.538033 114.07189,81.930379 97.489123,98.110426 80.806193,114.3882 53.27006,113.99334 37.005535,97.322949 20.643689,80.552813 21.040942,52.873494 37.798581,36.52484 54.655561,20.079271 82.477475,20.478897 98.909912,37.323426 115.43886,54.266892 115.03688,82.230818 98.105814,98.746696 81.076215,115.35869 52.970852,114.95436 36.37187,97.937115 19.677156,80.821731 20.083836,52.5755 37.186906,35.893745 54.387733,19.116643 82.77427,19.525653 99.538469,36.71421 116.39764,54.00014 115.98631,82.52643 98.712603,99.37275 81.341905,116.31366 52.676408,115.90002 35.748288,98.541509 18.725943,81.086372 19.141881,52.282209 36.584878,35.272604 54.124127,18.169139 83.066423,18.587366 100.1572,36.114517 117.34148,53.737556 116.92097,82.817458 99.30999,99.989102 81.60348,117.25389 52.386491,116.83111 35.134286,99.136617 17.78929,81.34695 18.214326,51.993388 35.99202,34.660924 c 17.872513,-17.42491 47.36214,-16.997623 64.77457,0.862957 17.50453,17.955053 17.075,47.580245 -0.86816,65.072339 C 81.86114,118.18008 52.100881,117.74832 34.529403,99.722888 16.866496,81.603661 17.300479,51.708823 35.407892,34.058251 53.60876,16.316582 83.637693,16.75278 101.36707,34.941872 119.18723,53.224088 118.74882,83.386637 100.47835,101.19455 82.11507,119.09291 51.819378,118.65231 33.933211,100.30073 15.956918,81.856686 16.399704,51.428317 34.832092,33.46417 53.356631,15.410213 83.917213,15.855179 101.95907,34.368094 120.09042,52.972844 119.64329,83.665183 101.05012,101.78448 82.365439,119.99297 51.541796,119.54367 33.345319,100.87054 15.059959,82.10619 15.511413,51.151688 34.264245,32.878295 53.107982,14.516321 84.192899,14.969921 102.54295,33.80218 120.98128,52.725042 120.52554,83.939937 101.61413,102.36639 82.612405,120.88083 51.267963,120.42296 32.765363,101.43265 14.175068,82.352328 14.63506,50.878767 33.704005,32.300269 52.862663,13.634366 84.464918,14.096472 103.11907,33.243791 121.86033,52.480532 121.39612,84.211064 102.17068,102.94062 82.856113,121.75701 50.99772,121.29069 32.193005,101.98739 13.301733,82.595243 13.770139,50.609398 33.151051,31.729761 52.620533,12.763844 84.733423,13.234335 103.68774,32.692611 122.72807,52.239179 122.2555,84.478713 102.72011,103.50748 83.096698,122.62199 50.730917,122.14735 31.62793,102.53508 12.439479,82.835068 12.916181,50.343434 32.605084,31.166461 52.38146,11.90429 84.998558,12.383048 104.24929,32.148347 c 19.33566,19.852504 18.85486,52.594679 -0.9866,71.918943 -19.928402,19.40893 -52.795272,18.92609 -72.192843,-0.9913 C 11.587861,83.071927 12.072746,50.080739 32.065826,30.610082 52.145324,11.055265 85.260455,11.542178 104.80398,31.610724 c 19.62743,20.154707 19.1385,53.39341 -1.00529,73.009586 C 83.569,124.32014 50.207092,123.82919 30.518482,103.61039 10.746465,83.305937 11.239425,49.821187 31.533015,30.060356 51.91201,10.216363 85.51924,10.711325 105.35208,31.079487 125.26784,51.532805 124.77088,85.262159 104.32837,105.1668 83.800943,125.15412 49.949818,124.65518 29.973579,104.13852 9.9149027,83.537205 10.415833,49.564659 31.006409,29.517031 51.681411,9.3872012 85.77503,9.890109 105.89384,30.554395 126.09463,51.302869 125.58975,85.517218 104.85196,105.70702 84.030222,125.97855 49.695484,125.47171 29.434899,104.66063 9.0928105,83.765833 9.6016129,49.311043 30.485778,28.97987 51.453428,8.5674224 86.027934,9.0781777 106.4295,30.035224 126.91211,51.075525 126.39941,85.769417 105.36969,106.24118 84.256933,126.79377 49.443984,126.27912 28.902217,105.17692 8.279847,83.991916 8.7964255,49.060235 29.970907,28.448654 51.227966,7.7566901 86.278056,8.2751981 106.95926,29.521761 127.72063,50.85068 127.2002,86.018859 105.88175,106.7695 84.481168,127.6001 49.195216,127.07775 28.37532,105.6876 7.475691,84.215545 7.9999537,48.812136 29.461595,27.923172 51.004937,6.954688 86.525493,7.4808577 107.48334,29.013809 128.5205,50.628246 127.99243,86.265639 106.38836,107.29219 84.703012,128.39785 48.949087,127.86788 27.854011,106.19287 6.6800399,84.436804 7.2118982,48.566653 28.957651,27.40323 50.784258,6.1611179 86.770336,6.6948617 108.00193,28.511179 129.31201,50.408142 128.77638,86.509847 106.88968,107.80943 84.922545,129.18731 48.705509,128.64981 27.3381,106.69291 5.8926085,84.655772 6.4319771,48.323699 28.458897,26.888641 50.565851,5.3756987 87.012671,5.916932 108.51521,28.013695 130.09543,50.190291 129.55234,86.751568 107.38591,108.32141 85.139845,129.96875 48.464397,129.4238 26.827411,107.18788 5.1131273,84.872525 5.6599239,48.083191 27.965162,26.37923 50.349641,4.5981647 87.25258,5.1468057 109.02335,27.521189 130.87103,49.974619 130.32055,86.990883 107.87719,108.8283 85.354983,130.74244 48.225672,130.19012 26.321776,107.67796 4.3413413,85.087134 4.8954864,47.845051 27.476285,25.874833 50.135557,3.8282644 87.49014,4.3842345 109.52652,27.033503 131.63906,49.761057 131.08127,87.227867 108.3637,109.33025 85.568028,131.50861 47.989259,130.949 25.821035,108.16329 3.5770094,85.299666 4.1384262,47.609204 26.992116,25.375292 49.923534,3.0657596 87.725423,3.6289827 110.02487,26.550488 132.39975,49.549539 131.83473,87.462593 108.84557,109.82742 85.779045,132.2675 47.755087,131.70068 25.325039,108.64403 2.8199025,85.510185 3.3885168,47.375582 26.512509,24.88046 49.713509,2.3104247 87.958501,2.880827 110.51855,26.072 c 22.63478,23.268003 22.06259,61.623129 -1.1956,84.24795 C 85.988094,133.01933 47.523088,132.44537 24.833644,109.1203 2.0698036,85.718751 2.6455435,47.144116 26.037329,24.390193 49.505421,1.5620451 88.189437,2.1395555 111.00769,25.597906 133.9,49.132391 133.32073,87.92554 109.79596,110.80798 86.195234,133.76431 47.293198,133.18327 24.346714,109.59225 1.3265063,85.925423 1.9093022,46.914744 25.566445,23.90436 49.299214,0.82041718 88.418295,1.4049665 111.49244,25.128076 134.63997,48.926646 134.05368,88.153888 110.26475,111.29165 86.400521,134.50264 47.065357,133.91459 23.864121,110.05999 0.58981431,86.130256 1.1795988,46.687405 25.099734,23.422831 49.094834,0.08534698 88.645135,0.67686829 111.97291,24.66239 c 23.40052,24.060324 22.80727,63.717842 -1.2435,87.10868 C 86.604008,135.2345 46.839505,134.63952 23.385741,110.52365 -0.14045922,86.3333 0.4562484,46.462042 24.637077,22.945487 48.892229,-0.64335009 88.870012,-0.04492168 112.44923,24.200729 136.10057,48.520545 135.50042,88.604627 111.19009,112.24637 86.805744,135.96008 46.615588,135.35822 22.911458,110.98334 -0.8644924,86.534606 -0.2609251,46.238601 24.178363,22.47221 48.69135,-1.3658501 89.092982,-0.76057753 112.9215,23.742984 136.82154,48.32009 136.21457,88.827128 111.64687,112.71765 87.005778,136.67954 46.393553,136.07087 22.441159,111.43917 -1.5824552,86.734222 -0.97208979,46.017028 23.723485,22.00289 48.49215,-2.0823208 89.314095,-1.4702654 113.38985,23.289049 c 24.14668,24.832253 23.53294,65.758736 -1.28998,89.895981 -24.895715,24.20803 -65.92652,23.5926 -90.125132,-1.2938 C -2.2945097,86.932192 -1.6774061,45.797275 23.27234,21.537422 c 25.022244,-24.3303448 66.261061,-23.7115659 90.58203,1.3014 24.39132,25.085317 23.77087,66.427824 -1.30519,90.809788 C 87.40092,138.10078 45.954929,137.47866 21.512093,112.33964 -3.000811,87.12856 -2.3770275,45.579293 22.824831,21.075706 48.09861,-3.4978092 89.750947,-2.8723646 114.31516,22.392207 c 24.63401,25.336349 24.00691,67.091552 -1.32025,91.716283 -25.398797,24.69438 -67.256664,24.06562 -91.941784,-1.324 C -3.7015074,87.323367 -3.0711005,45.363038 22.380864,20.617644 47.904187,-4.1971268 89.966778,-3.5650727 114.77233,21.949111 139.64712,47.534515 139.01342,89.699168 113.43714,114.56476 87.789776,139.49945 45.523257,138.86412 20.597745,113.22586 -4.3967407,87.516652 -3.7597655,45.148464 21.94035,20.163144 c 25.770926,-25.0541598 68.240587,-24.4155509 93.2856,1.346303 25.11372,25.832528 24.47348,68.403469 -1.34999,93.508063 -25.894014,25.17317 -68.566042,24.5313 -93.730101,-1.35367 C -5.0866469,87.708455 -4.443157,44.935532 21.503203,19.712119 47.519838,-5.5796108 90.393466,-4.9345005 115.67612,21.073129 141.02696,47.150901 140.38024,90.125043 114.31145,115.46683 88.17266,140.87668 45.098189,140.22833 19.697383,114.09851 -5.7713563,87.89881 -5.121404,44.7242 21.069341,19.264483" class="furEiENd_3"></path>
  </g>
  <g inkscape:label="name" id="layer2" inkscape:groupmode="layer"></g>
  <inkscape:templateinfo>
    <inkscape:name>basics</inkscape:name>
    <inkscape:author>imagineee</inkscape:author>
    <inkscape:date>2020-10-19</inkscape:date>
  </inkscape:templateinfo>
<style data-made-with="vivus-instant">.furEiENd_0{stroke-dasharray:27 29;stroke-dashoffset:28;animation:furEiENd_draw 1750ms ease-out 0ms forwards;}.furEiENd_1{stroke-dasharray:51 53;stroke-dashoffset:52;animation:furEiENd_draw 1750ms ease-out 83ms forwards;}.furEiENd_2{stroke-dasharray:420 422;stroke-dashoffset:421;animation:furEiENd_draw 1750ms ease-out 166ms forwards;}.furEiENd_3{stroke-dasharray:16249 16251;stroke-dashoffset:16250;animation:furEiENd_draw 1750ms ease-out 250ms forwards;}@keyframes furEiENd_draw{100%{stroke-dashoffset:0;}}@keyframes furEiENd_fade{0%{stroke-opacity:1;}93.54838709677419%{stroke-opacity:1;}100%{stroke-opacity:0;}}</style></svg>
