<svg height="100%" width="100%" id="bg-svg" viewBox="0 0 1440 400" xmlns="http://www.w3.org/2000/svg" class="transition duration-300 ease-in-out delay-150"><path d="M 0,400 C 0,400 0,80 0,80 C 72.02870813397129,81.30143540669856 144.05741626794259,82.60287081339712 240,78 C 335.9425837320574,73.39712918660288 455.799043062201,62.88995215311005 577,56 C 698.200956937799,49.11004784688995 820.7464114832535,45.83732057416269 908,58 C 995.2535885167465,70.16267942583731 1047.2153110047848,97.76076555023924 1130,104 C 1212.7846889952152,110.23923444976076 1326.3923444976076,95.11961722488039 1440,80 C 1440,80 1440,400 1440,400 Z" stroke="none" stroke-width="0" fill="#0693e344" class="transition-all duration-300 ease-in-out delay-150"></path><path d="M 0,400 C 0,400 0,160 0,160 C 81.94258373205744,170.6794258373206 163.8851674641149,181.35885167464116 267,172 C 370.1148325358851,162.64114832535884 494.401913875598,133.24401913875596 598,133 C 701.598086124402,132.75598086124404 784.5071770334929,161.66507177033495 882,167 C 979.4928229665071,172.33492822966505 1091.5693779904304,154.0956937799043 1187,149 C 1282.4306220095696,143.9043062200957 1361.2153110047848,151.95215311004785 1440,160 C 1440,160 1440,400 1440,400 Z" stroke="none" stroke-width="0" fill="#0693e366" class="transition-all duration-300 ease-in-out delay-150"></path><path d="M 0,400 C 0,400 0,240 0,240 C 110.95693779904306,227.88516746411483 221.91387559808612,215.77033492822966 308,223 C 394.0861244019139,230.22966507177034 455.3014354066985,256.8038277511962 547,261 C 638.6985645933015,265.1961722488038 760.8803827751198,247.01435406698565 858,236 C 955.1196172248802,224.98564593301435 1027.1770334928228,221.13875598086125 1120,223 C 1212.8229665071772,224.86124401913875 1326.4114832535886,232.4306220095694 1440,240 C 1440,240 1440,400 1440,400 Z" stroke="none" stroke-width="0" fill="#0693e388" class="transition-all duration-300 ease-in-out delay-150"></path><path d="M 0,400 C 0,400 0,320 0,320 C 117.7224880382775,308.9090909090909 235.444976076555,297.8181818181818 334,295 C 432.555023923445,292.1818181818182 511.9425837320575,297.6363636363637 611,302 C 710.0574162679425,306.3636363636363 828.7846889952153,309.6363636363636 909,318 C 989.2153110047847,326.3636363636364 1030.9186602870814,339.8181818181818 1113,341 C 1195.0813397129186,342.1818181818182 1317.5406698564593,331.0909090909091 1440,320 C 1440,320 1440,400 1440,400 Z" stroke="none" stroke-width="0" fill="#0693e3ff" class="transition-all duration-300 ease-in-out delay-150"></path></svg>